<?xml version="1.0" encoding="UTF-8"?>
<svg width="964px" height="472px" viewBox="0 0 964 472" version="1.1" xmlns="http://www.w3.org/2000/svg" xmlns:xlink="http://www.w3.org/1999/xlink">
    <title>hero-img</title>
    <defs>
        <linearGradient x1="94.8643412%" y1="41.2218283%" x2="76.9173168%" y2="58.9626016%" id="linearGradient-1">
            <stop stop-color="#1E8AF2" offset="0%"></stop>
            <stop stop-color="#05BED7" offset="100%"></stop>
        </linearGradient>
        <linearGradient x1="94.8643412%" y1="41.2149398%" x2="76.9173168%" y2="58.9696348%" id="linearGradient-2">
            <stop stop-color="#1E8AF2" offset="0%"></stop>
            <stop stop-color="#05BED7" offset="100%"></stop>
        </linearGradient>
    </defs>
    <g id="Page-1" stroke="none" stroke-width="1" fill="none" fill-rule="evenodd">
        <g id="hero-img" transform="translate(9.000000, 4.000000)" stroke="url(#linearGradient-2)" stroke-width="8">
            <g id="Path-2270">
                <path d="M256.25304,61.49648 L256.37804,61.44448 L256.50604,61.40108 C290.32904,49.92518 321.69004,47.93058 351.43204,55.41058 C380.11604,62.62478 406.99404,78.57598 432.93904,102.78438 C448.31104,70.85248 467.54604,46.24498 491.64904,29.08568 C516.64004,11.29368 546.59604,1.70176 582.32304,0.00663 L582.46204,-1.33226763e-14 L582.60204,-1.33226763e-14 C659.95104,1.7456 715.22604,55.19348 773.29004,142.45238 C813.13104,201.88038 875.60904,221.17838 938.68004,215.53538 L946.67504,214.81938 L942.43204,221.63338 C896.09504,296.03838 833.31804,340.89338 754.19204,355.80238 C675.80504,370.57338 581.80504,355.87738 472.40804,312.27038 C386.52804,392.49838 305.56604,441.53138 228.38004,457.54238 C150.43004,473.71038 76.76494,456.10738 6.45734,403.83438 L-3.55271368e-15,399.03338 L7.72574,396.78438 C68.07774,379.21138 114.90504,334.23638 130.35904,263.60038 C152.68504,161.19138 184.71904,91.29218 256.25304,61.49648 Z" id="Path"></path>
            </g>
        </g>
    </g>
</svg>