<svg width="153" height="40" viewBox="0 0 153 40" fill="none" xmlns="http://www.w3.org/2000/svg">
<path d="M39.832 10.7062H41.9197V7.70476H39.832V2.5949H36.1039V7.70476H34.0161V10.7062H36.1039V20.7027H39.832V10.7062ZM45.9212 12.889C46.1888 12.274 46.6129 11.7396 47.1515 11.3387C47.753 10.9023 48.4836 10.6796 49.2268 10.7062C49.9109 10.7075 50.5815 10.8963 51.1654 11.2519C51.7882 11.6273 52.2622 12.2055 52.5075 12.889H45.9212ZM56.1853 15.6424C56.3284 14.5879 56.2522 13.5153 55.9616 12.4915C55.7047 11.6302 55.2919 10.8231 54.7437 10.1102C54.0507 9.26097 53.1645 8.58915 52.1589 8.15058C51.2688 7.74381 50.3043 7.52428 49.3256 7.50565C48.3933 7.49971 47.4702 7.68988 46.6165 8.06376C45.7865 8.42592 45.0287 8.93452 44.3796 9.56515C43.7439 10.2025 43.2376 10.9563 42.8883 11.7852C42.524 12.6357 42.338 13.5516 42.3416 14.4766C42.3338 15.4139 42.52 16.3428 42.8883 17.2051C43.2398 18.0292 43.746 18.7785 44.3796 19.4128C45.0272 20.0424 45.7858 20.5472 46.6171 20.9018C47.473 21.2675 48.3952 21.4531 49.3262 21.4468C50.9169 21.4468 52.2673 21.021 53.3774 20.1693C54.5011 19.2996 55.3614 18.1362 55.8628 16.8083H52.1851C51.931 17.2273 51.5766 17.5767 51.1537 17.8253C50.698 18.1064 50.0891 18.247 49.3269 18.247C48.5146 18.2732 47.7174 18.024 47.0652 17.54C46.4509 17.0675 46.0202 16.3968 45.8467 15.6424H56.1853ZM71.3966 12.3681C71.1696 11.6834 70.843 11.0357 70.4273 10.4457C70.0114 9.85689 69.5086 9.33421 68.9361 8.89541C68.3599 8.45882 67.7182 8.11581 67.0348 7.87907C66.3118 7.62787 65.551 7.50203 64.7855 7.50699C63.845 7.49937 62.9135 7.68953 62.0515 8.0651C61.2269 8.42312 60.4767 8.93188 59.8395 9.56515C59.2059 10.1994 58.6997 10.9487 58.3483 11.7728C57.9815 12.6269 57.7954 13.5474 57.8015 14.4766C57.7937 15.4139 57.9799 16.3428 58.3483 17.2051C58.6997 18.0292 59.2059 18.7785 59.8395 19.4128C60.4749 20.0454 61.2258 20.5508 62.0515 20.9018C62.9155 21.2694 63.8462 21.4552 64.7855 21.4475C65.55 21.4524 66.3101 21.3309 67.0348 21.0878C67.7294 20.8532 68.3802 20.5053 68.9609 20.0584C69.5389 19.6305 70.0426 19.111 70.4522 18.5205C70.8638 17.9307 71.1745 17.2769 71.3718 16.5857H67.6941C67.4012 17.0436 67.0001 17.4227 66.5259 17.6895C66.0083 17.9716 65.4254 18.1128 64.8358 18.0988C64.3449 18.1035 63.8582 18.0064 63.4067 17.8139C62.9753 17.6289 62.5831 17.3637 62.251 17.0325C61.9152 16.7117 61.6524 16.3226 61.4805 15.8915C61.2978 15.4425 61.2049 14.9622 61.2071 14.4776C61.2041 13.9969 61.2971 13.5205 61.4805 13.0761C61.6584 12.6445 61.9202 12.2524 62.251 11.9226C62.5902 11.6033 62.9809 11.3433 63.4067 11.1537C63.8561 10.9531 64.3436 10.8515 64.8358 10.856C65.4224 10.8422 66.0033 10.9743 66.5259 11.2405C67.0157 11.5058 67.4269 11.895 67.7182 12.3691L71.3966 12.3681ZM85.8617 12.3433C85.8597 11.7049 85.7331 11.073 85.4889 10.4829C85.2447 9.87785 84.8908 9.32287 84.445 8.8458C83.989 8.3599 83.4451 7.96436 82.842 7.67995C82.193 7.37623 81.4834 7.22356 80.7666 7.23346C80.2221 7.22524 79.68 7.30911 79.1635 7.48151C78.7444 7.62263 78.3406 7.80546 77.9581 8.02723C77.6868 8.18186 77.4327 8.36479 77.2001 8.57294C77.0261 8.73831 76.9309 8.82926 76.9146 8.8458V2.59423H73.3107V20.7027H76.9146V12.8642C76.9178 12.5293 76.9888 12.1984 77.1233 11.8915C77.2578 11.5845 77.4532 11.3079 77.6975 11.0783C77.9423 10.8221 78.2376 10.6193 78.5649 10.4827C78.8921 10.3461 79.2442 10.2786 79.5988 10.2845C79.9496 10.2803 80.2974 10.3487 80.6203 10.4853C80.9433 10.6219 81.2344 10.8238 81.4753 11.0783C81.7214 11.3117 81.9176 11.5924 82.0521 11.9035C82.1866 12.2145 82.2568 12.5496 82.2582 12.8884V20.702H85.8621L85.8617 12.3433ZM101.296 12.3681C101.069 11.6834 100.743 11.0357 100.327 10.4457C99.9109 9.85689 99.4081 9.33421 98.8355 8.89541C98.2593 8.45882 97.6177 8.11581 96.9342 7.87907C96.2112 7.62787 95.4505 7.50203 94.6849 7.50699C93.7444 7.49937 92.8129 7.68953 91.951 8.0651C91.1261 8.42305 90.3757 8.93181 89.7383 9.56515C89.1047 10.1994 88.5985 10.9487 88.247 11.7728C87.8803 12.6269 87.6942 13.5474 87.7003 14.4766C87.6925 15.4139 87.8787 16.3428 88.247 17.2051C88.5985 18.0292 89.1047 18.7785 89.7383 19.4128C90.3739 20.0454 91.125 20.5509 91.951 20.9018C92.815 21.2694 93.7457 21.4552 94.6849 21.4475C95.4495 21.4522 96.2095 21.3305 96.9342 21.0871C97.6288 20.8525 98.2797 20.5046 98.8604 20.0577C99.4383 19.6298 99.9421 19.1103 100.352 18.5198C100.763 17.93 101.074 17.2762 101.271 16.585H97.5935C97.3007 17.0429 96.8995 17.422 96.4254 17.6888C95.9078 17.9709 95.3249 18.1121 94.7353 18.0981C94.2443 18.1028 93.7577 18.0058 93.3062 17.8132C92.8748 17.6282 92.4826 17.3631 92.1505 17.0318C91.8146 16.711 91.5519 16.3219 91.38 15.8908C91.1973 15.4418 91.1044 14.9615 91.1066 14.4769C91.1036 13.9963 91.1965 13.5198 91.38 13.0754C91.5578 12.6438 91.8197 12.2518 92.1505 11.922C92.4896 11.6026 92.8804 11.3426 93.3062 11.153C93.7556 10.9524 94.243 10.8509 94.7353 10.8553C95.3219 10.8415 95.9027 10.9736 96.4254 11.2398C96.9151 11.5051 97.3263 11.8944 97.6177 12.3685L101.296 12.3681ZM115.761 12.3433C115.759 11.7049 115.633 11.073 115.388 10.4829C115.144 9.87785 114.79 9.32287 114.344 8.8458C113.888 8.3599 113.345 7.96436 112.741 7.67995C112.092 7.37623 111.383 7.22356 110.666 7.23346C110.122 7.22524 109.58 7.30911 109.063 7.48151C108.644 7.62263 108.24 7.80546 107.858 8.02723C107.586 8.18186 107.332 8.36479 107.1 8.57294C106.926 8.73831 106.83 8.82926 106.814 8.8458V2.59423H103.21V20.7027H106.814V12.8642C106.817 12.5293 106.888 12.1984 107.022 11.8915C107.157 11.5845 107.352 11.3079 107.597 11.0783C107.841 10.8221 108.137 10.6193 108.464 10.4827C108.791 10.3461 109.143 10.2786 109.498 10.2845C109.849 10.2803 110.197 10.3487 110.519 10.4853C110.842 10.6219 111.134 10.8238 111.374 11.0783C111.62 11.3117 111.817 11.5924 111.951 11.9035C112.086 12.2145 112.156 12.5496 112.157 12.8884V20.702H115.761V12.3433ZM121.204 12.889C121.472 12.274 121.896 11.7396 122.435 11.3387C123.036 10.9023 123.767 10.6796 124.51 10.7062C125.194 10.7075 125.864 10.8963 126.448 11.2519C127.071 11.6273 127.545 12.2055 127.791 12.889H121.204ZM131.47 15.6424C131.613 14.5879 131.537 13.5153 131.246 12.4915C130.989 11.6302 130.576 10.8231 130.028 10.1102C129.335 9.26113 128.448 8.58954 127.443 8.15125C126.552 7.74449 125.588 7.52495 124.609 7.50632C123.677 7.50037 122.754 7.69054 121.9 8.06443C121.07 8.42645 120.313 8.93483 119.664 9.56515C119.028 10.2025 118.522 10.9563 118.173 11.7852C117.808 12.6357 117.622 13.5516 117.626 14.4766C117.618 15.4139 117.804 16.3428 118.173 17.2051C118.524 18.0292 119.03 18.7785 119.664 19.4128C120.311 20.0421 121.07 20.5466 121.901 20.9011C122.756 21.267 123.678 21.4528 124.609 21.4468C126.2 21.4468 127.55 21.021 128.66 20.1693C129.784 19.2996 130.644 18.1362 131.146 16.8083H127.468C127.214 17.2273 126.86 17.5767 126.437 17.8253C125.981 18.1064 125.372 18.247 124.61 18.247C123.798 18.2732 123 18.024 122.348 17.54C121.734 17.0674 121.304 16.3967 121.13 15.6424H131.47ZM134.153 10.7062V20.7027H137.906V10.7062H140.218V7.70476H137.881L137.869 7.53112C137.861 7.39046 137.865 7.24941 137.881 7.10944C137.92 6.94357 137.974 6.78165 138.043 6.62573C138.123 6.44519 138.247 6.28744 138.403 6.16684C138.563 6.02137 138.754 5.91518 138.962 5.85677C139.152 5.80136 139.349 5.77215 139.547 5.76996C139.7 5.75245 139.855 5.75663 140.007 5.78236C140.131 5.80716 140.202 5.81957 140.218 5.81957V2.6197C140.185 2.6197 140.023 2.61143 139.734 2.5949C139.381 2.58129 139.027 2.59811 138.677 2.64518C138.229 2.72445 137.789 2.8406 137.36 2.99245C136.875 3.16052 136.427 3.42175 136.043 3.76141C135.574 4.16778 135.172 4.64485 134.85 5.1753C134.614 5.57147 134.43 5.99675 134.304 6.44037C134.2 6.73106 134.145 7.0369 134.142 7.34542L134.155 7.70509H132.314V10.7065L134.153 10.7062ZM142.057 7.97762V11.1285H147.898L141.585 17.95V21.0003H152.769V17.8253H145.984L152.297 11.0287V7.97829L142.057 7.97762Z" fill="white"/>
<path d="M100.024 31.944V31H102.088V39H100.024V38.056C99.4053 38.8347 98.536 39.224 97.416 39.224C96.3493 39.224 95.432 38.8187 94.664 38.008C93.9067 37.1867 93.528 36.184 93.528 35C93.528 33.8267 93.9067 32.8293 94.664 32.008C95.432 31.1867 96.3493 30.776 97.416 30.776C98.536 30.776 99.4053 31.1653 100.024 31.944ZM96.216 36.632C96.632 37.048 97.16 37.256 97.8 37.256C98.44 37.256 98.968 37.048 99.384 36.632C99.8107 36.2053 100.024 35.6613 100.024 35C100.024 34.3387 99.8107 33.8 99.384 33.384C98.968 32.9573 98.44 32.744 97.8 32.744C97.16 32.744 96.632 32.9573 96.216 33.384C95.8 33.8 95.592 34.3387 95.592 35C95.592 35.6613 95.8 36.2053 96.216 36.632ZM106.024 39H103.96V27.32H106.024V39ZM109.977 39H107.913V27.32H109.977V39ZM112.89 30.04C112.549 30.04 112.25 29.9173 111.994 29.672C111.749 29.416 111.626 29.1173 111.626 28.776C111.626 28.4347 111.749 28.136 111.994 27.88C112.25 27.624 112.549 27.496 112.89 27.496C113.242 27.496 113.541 27.624 113.786 27.88C114.042 28.136 114.17 28.4347 114.17 28.776C114.17 29.1173 114.042 29.416 113.786 29.672C113.541 29.9173 113.242 30.04 112.89 30.04ZM113.93 39H111.866V31H113.93V39ZM121.899 31.944V31H123.963V39H121.899V38.056C121.28 38.8347 120.411 39.224 119.291 39.224C118.224 39.224 117.307 38.8187 116.539 38.008C115.782 37.1867 115.403 36.184 115.403 35C115.403 33.8267 115.782 32.8293 116.539 32.008C117.307 31.1867 118.224 30.776 119.291 30.776C120.411 30.776 121.28 31.1653 121.899 31.944ZM118.091 36.632C118.507 37.048 119.035 37.256 119.675 37.256C120.315 37.256 120.843 37.048 121.259 36.632C121.686 36.2053 121.899 35.6613 121.899 35C121.899 34.3387 121.686 33.8 121.259 33.384C120.843 32.9573 120.315 32.744 119.675 32.744C119.035 32.744 118.507 32.9573 118.091 33.384C117.675 33.8 117.467 34.3387 117.467 35C117.467 35.6613 117.675 36.2053 118.091 36.632ZM130.283 30.776C131.168 30.776 131.888 31.0693 132.443 31.656C133.019 32.2533 133.307 33.064 133.307 34.088V39H131.243V34.344C131.243 33.8213 131.099 33.416 130.811 33.128C130.533 32.84 130.149 32.696 129.659 32.696C129.115 32.696 128.683 32.8667 128.363 33.208C128.053 33.5387 127.899 34.0293 127.899 34.68V39H125.835V31H127.899V31.896C128.389 31.1493 129.184 30.776 130.283 30.776ZM138.877 39.224C137.672 39.224 136.664 38.8187 135.853 38.008C135.053 37.1973 134.653 36.1947 134.653 35C134.653 33.8053 135.053 32.8027 135.853 31.992C136.664 31.1813 137.672 30.776 138.877 30.776C139.656 30.776 140.365 30.9627 141.005 31.336C141.645 31.7093 142.13 32.2107 142.461 32.84L140.685 33.88C140.525 33.5493 140.28 33.288 139.949 33.096C139.629 32.904 139.266 32.808 138.861 32.808C138.242 32.808 137.73 33.016 137.325 33.432C136.92 33.8373 136.717 34.36 136.717 35C136.717 35.6187 136.92 36.1413 137.325 36.568C137.73 36.9733 138.242 37.176 138.861 37.176C139.277 37.176 139.645 37.0853 139.965 36.904C140.296 36.712 140.541 36.4507 140.701 36.12L142.493 37.144C142.141 37.784 141.64 38.2907 140.989 38.664C140.349 39.0373 139.645 39.224 138.877 39.224ZM151.236 35.848H145.204C145.47 36.8507 146.222 37.352 147.46 37.352C148.249 37.352 148.846 37.0853 149.252 36.552L150.916 37.512C150.126 38.6533 148.964 39.224 147.428 39.224C146.105 39.224 145.044 38.824 144.244 38.024C143.444 37.224 143.044 36.216 143.044 35C143.044 33.8053 143.438 32.8027 144.228 31.992C145.006 31.1813 146.02 30.776 147.268 30.776C148.452 30.776 149.417 31.1813 150.164 31.992C150.932 32.8027 151.316 33.8053 151.316 35C151.316 35.224 151.289 35.5067 151.236 35.848ZM145.172 34.248H149.252C149.134 33.7253 148.894 33.3253 148.532 33.048C148.18 32.7707 147.758 32.632 147.268 32.632C146.713 32.632 146.254 32.776 145.892 33.064C145.529 33.3413 145.289 33.736 145.172 34.248Z" fill="white"/>
<path fill-rule="evenodd" clip-rule="evenodd" d="M14.645 32.2418H14.6954C15.7702 30.7377 17.0851 30.1053 18.838 30.3539C20.698 30.7473 21.8015 32.2858 22.8324 34.7181C23.5608 36.4328 25.0582 37.207 26.6724 37.3642C23.7089 40.5757 19.7082 40.5757 14.6702 37.3642C9.62596 40.5841 5.62417 40.5841 2.66486 37.3642C4.28222 37.2068 5.77968 36.4203 6.508 34.7181C7.53894 32.2858 8.64243 30.7473 10.4993 30.3539C12.2553 30.1085 13.5699 30.7409 14.645 32.2418Z" fill="white"/>
<path fill-rule="evenodd" clip-rule="evenodd" d="M5.63175 0.195089C6.46434 0.194571 7.28608 0.383535 8.0345 0.747612C8.78292 1.11169 9.4383 1.64129 9.95082 2.29615C10.2481 1.86809 10.6084 1.48725 11.0195 1.16651V8.41364C10.9105 8.55216 10.8363 8.71468 10.8031 8.88765C10.7698 9.06062 10.7785 9.23902 10.8284 9.40796C10.8783 9.5769 10.968 9.73147 11.0899 9.85879C11.2118 9.9861 11.3625 10.0825 11.5294 10.1398C11.6962 10.1972 11.8744 10.2139 12.049 10.1885C12.2237 10.1632 12.3897 10.0965 12.5333 9.99411C12.6768 9.89168 12.7938 9.75647 12.8743 9.59976C12.9548 9.44306 12.9967 9.26939 12.9963 9.09327C12.9956 8.84727 12.9136 8.60837 12.763 8.41364V0.2328C13.097 0.125396 13.4399 0.0474963 13.7876 0V11.2964C13.2727 11.499 12.8447 11.8745 12.5776 12.3583C12.3104 12.842 12.2207 13.4037 12.324 13.9463C12.4273 14.489 12.7171 14.9787 13.1434 15.3309C13.5697 15.6832 14.1059 15.8759 14.6593 15.8759C15.2128 15.8759 15.7489 15.6832 16.1752 15.3309C16.6015 14.9787 16.8913 14.489 16.9946 13.9463C17.0979 13.4037 17.0083 12.842 16.7411 12.3583C16.4739 11.8745 16.046 11.499 15.5311 11.2964V0.0125702C15.9618 0.0705729 16.3847 0.176081 16.7921 0.32716V5.87128V7.61133H20.3546C20.4934 7.72011 20.6562 7.79418 20.8295 7.82736C21.0029 7.86055 21.1816 7.85188 21.3509 7.80208C21.5201 7.75228 21.675 7.6628 21.8026 7.5411C21.9302 7.4194 22.0267 7.26902 22.0842 7.1025C22.1417 6.93598 22.1584 6.75815 22.133 6.58386C22.1076 6.40957 22.0408 6.24387 21.9382 6.10059C21.8356 5.95731 21.7001 5.84061 21.5431 5.76022C21.386 5.67983 21.212 5.63809 21.0356 5.63848C20.7887 5.63701 20.5487 5.71907 20.3546 5.87128H18.5355V1.3844C18.8875 1.69625 19.1932 2.05645 19.4436 2.4542C19.9874 1.70642 20.712 1.10825 21.55 0.715473C22.388 0.322698 23.312 0.148108 24.2359 0.207985C25.1597 0.267862 26.0534 0.560255 26.8334 1.0579C27.6135 1.55554 28.2545 2.24223 28.6969 3.05393C29.1392 3.86562 29.3684 4.77589 29.363 5.69986C29.3577 6.62382 29.118 7.53139 28.6662 8.33792C28.2145 9.14445 27.5655 9.82369 26.7798 10.3123C25.994 10.8009 25.097 11.083 24.1726 11.1322V21.635H5.33216V11.1322C4.61252 11.1125 3.90381 10.9516 3.24649 10.6586C2.58916 10.3656 1.9961 9.94631 1.50115 9.42457C1.00621 8.90283 0.619072 8.28891 0.361855 7.61785C0.104639 6.9468 -0.0176244 6.23175 0.00204712 5.51353C0.0217186 4.79532 0.182939 4.088 0.476504 3.43197C0.77007 2.77594 1.19023 2.18404 1.713 1.69007C2.23576 1.1961 2.8509 0.809727 3.52328 0.553016C4.19566 0.296306 4.91212 0.174283 5.63175 0.193916V0.195089ZM14.645 12.1076C14.9274 12.1076 15.2033 12.1912 15.4381 12.3477C15.6728 12.5042 15.8558 12.7267 15.9638 12.987C16.0719 13.2474 16.1001 13.5338 16.045 13.8101C15.99 14.0865 15.854 14.3403 15.6544 14.5396C15.4548 14.7388 15.2004 14.8745 14.9235 14.9295C14.6466 14.9844 14.3596 14.9562 14.0988 14.8484C13.838 14.7406 13.615 14.558 13.4582 14.3237C13.3013 14.0894 13.2176 13.814 13.2176 13.5322C13.2176 13.1544 13.368 12.792 13.6357 12.5249C13.9034 12.2577 14.2665 12.1076 14.645 12.1076Z" fill="white"/>
<path d="M2.68719 27.0532V26.0023L6.14258 23.4316V24.5613L3.40259 26.534L6.14225 28.532V29.6616L2.68719 27.0532Z" fill="white"/>
<path d="M26.6062 27.0532V26.0023L23.1478 23.4316V24.5613L25.8907 26.534L23.1478 28.5321V29.6618L26.6062 27.0532Z" fill="white"/>
<path d="M11.8015 27.1765L12.432 27.2583C12.3496 27.5929 12.1549 27.8893 11.8804 28.0983C11.5847 28.3142 11.225 28.4249 10.8588 28.4129C10.63 28.4241 10.4014 28.387 10.1879 28.3041C9.97444 28.2211 9.78087 28.0942 9.61984 27.9316C9.29664 27.5585 9.13257 27.074 9.16272 26.5817C9.13121 26.0756 9.29733 25.577 9.62622 25.1906C9.77872 25.0262 9.96502 24.8967 10.1724 24.8109C10.3797 24.7251 10.6032 24.6851 10.8274 24.6935C11.0453 24.686 11.2623 24.7254 11.4635 24.809C11.6648 24.8926 11.8457 25.0185 11.9939 25.178C12.3163 25.5588 12.4788 26.0492 12.4473 26.5467V26.7072H9.78374C9.77729 27.0342 9.88921 27.3526 10.0989 27.6039C10.1937 27.7058 10.309 27.7864 10.4372 27.8407C10.5654 27.8949 10.7037 27.9214 10.8429 27.9185C11.0461 27.9253 11.2457 27.8644 11.4103 27.7454C11.587 27.5988 11.7173 27.4042 11.7855 27.1852L11.8015 27.1765ZM9.81833 26.2098H11.8077C11.8005 25.9664 11.7203 25.7308 11.5776 25.5333C11.4889 25.4211 11.3751 25.3311 11.2454 25.2705C11.1157 25.2099 10.9736 25.1803 10.8305 25.1841C10.7008 25.1803 10.5717 25.2033 10.4513 25.2515C10.3309 25.2996 10.2217 25.372 10.1305 25.4641C9.93435 25.6636 9.8218 25.9303 9.81581 26.2098H9.81833Z" fill="white"/>
<path d="M19.5032 27.176L20.1337 27.2578C20.0486 27.5928 19.8522 27.8892 19.5765 28.0986C19.2813 28.3129 18.9231 28.4235 18.5582 28.4132C18.3294 28.4244 18.1008 28.3873 17.8873 28.3043C17.6738 28.2214 17.4802 28.0945 17.3192 27.9319C16.996 27.5588 16.8319 27.0743 16.8621 26.582C16.8293 26.0763 16.9943 25.5776 17.3224 25.1909C17.476 25.0271 17.6629 24.8981 17.8706 24.8123C18.0783 24.7266 18.302 24.6862 18.5266 24.6938C18.7445 24.6863 18.9614 24.7257 19.1627 24.8093C19.364 24.8929 19.5449 25.0188 19.6931 25.1783C20.0092 25.5592 20.1669 26.0465 20.1337 26.5399C20.1337 26.5746 20.1337 26.628 20.1337 26.7003H17.476C17.4752 27.0297 17.5939 27.3482 17.8102 27.597C17.905 27.6988 18.0202 27.7795 18.1485 27.8338C18.2767 27.888 18.4149 27.9145 18.5542 27.9116C18.7572 27.9175 18.9566 27.8567 19.1216 27.7384C19.3021 27.5931 19.435 27.3972 19.5032 27.176ZM17.511 26.2099H19.5032C19.4982 25.9666 19.419 25.7306 19.2761 25.5335C19.1872 25.4214 19.0735 25.3316 18.9438 25.2709C18.8141 25.2103 18.6721 25.1806 18.529 25.1842C18.3993 25.1805 18.2702 25.2034 18.1498 25.2516C18.0294 25.2998 17.9202 25.3722 17.829 25.4642C17.634 25.6646 17.5215 25.9307 17.5138 26.2099H17.511Z" fill="white"/>
</svg>
