<svg width="127" height="41" viewBox="0 0 127 41" fill="none" xmlns="http://www.w3.org/2000/svg">
<path d="M120.564 28.6173C120.1 28.8179 119.701 28.9426 119.28 28.9813C119.113 28.9965 118.942 28.9847 118.774 28.9847C99.4784 28.9847 80.1846 28.9847 60.8892 28.9847C59.9318 28.9847 58.966 29.074 58.0171 28.7471V23.2557H107.72C108.9 23.2557 110.08 23.2726 111.26 23.2507C112.416 23.2305 113.584 23.3939 114.766 23.0265C114.766 17.5352 114.766 11.9916 114.766 6.44637C114.707 6.38738 114.646 6.3267 114.56 6.24074H69.3284V0.515137H126.062V6.22726H120.562V28.6173H120.564Z" fill="white"/>
<path d="M46.6772 0.515169C46.6367 0.532024 46.598 0.547194 46.5575 0.558992V28.7285C46.7042 28.9982 46.9233 28.9864 47.1542 28.9864C48.8363 28.9814 50.5201 28.9847 52.1887 28.9847C52.2629 28.9089 52.3219 28.8499 52.4719 28.7016V17.7459C52.5595 17.6566 52.6202 17.5976 52.7079 17.5099H109.037V11.7725H52.5073C52.4197 11.6849 52.359 11.6259 52.2882 11.5534C52.2831 11.486 52.2781 11.4051 52.273 11.3242C52.1651 9.63366 52.5831 7.96334 52.418 6.21212H63.7343C63.7343 4.46932 63.731 2.78552 63.7377 1.10003C63.7394 0.870807 63.7293 0.668549 63.4849 0.515169C63.4781 0.510113 63.4697 0.505056 63.4613 0.5H48.1773C48.1132 0.5 48.0408 0.508427 47.9683 0.515169C47.8233 0.532024 47.6767 0.55225 47.5789 0.515169H46.6772Z" fill="white"/>
<path d="M48.897 34.6108H50.2133L51.2364 38.479L52.3573 34.6108H53.6332L54.6563 38.479L55.7771 34.6108H57.0766L55.4164 40.3769H53.9855L52.9876 36.9334L51.9983 40.3769H50.5673L48.8987 34.6108H48.897Z" fill="white"/>
<path d="M62.7904 34.4878C64.4506 34.4878 65.8007 35.8379 65.8007 37.4981C65.8007 39.1583 64.4506 40.4999 62.7904 40.4999C61.1302 40.4999 59.7886 39.1583 59.7886 37.4981C59.7886 35.8379 61.1302 34.4878 62.7904 34.4878ZM62.782 39.2729C63.763 39.2729 64.5652 38.479 64.5652 37.4981C64.5652 36.5171 63.7646 35.7148 62.782 35.7148C61.7994 35.7148 61.0072 36.5154 61.0072 37.4981C61.0072 38.4807 61.801 39.2729 62.782 39.2729Z" fill="white"/>
<path d="M70.911 38.167H70.3633V40.3749H69.1362V34.6089H71.6543C72.6353 34.6089 73.4376 35.4112 73.4376 36.3921C73.4376 37.1607 72.9471 37.8147 72.2594 38.0608L73.5185 40.3749H72.1111L70.9094 38.167H70.911ZM70.3633 35.8376V36.9416H71.656C71.9662 36.9416 72.2122 36.704 72.2122 36.3938C72.2122 36.0837 71.9662 35.8376 71.656 35.8376H70.3633Z" fill="white"/>
<path d="M76.8237 34.6108H78.0508V39.1499H80.5048V40.3769H76.8254V34.6108H76.8237Z" fill="white"/>
<path d="M83.6044 34.6108H85.9101C87.5704 34.6108 88.9204 35.8868 88.9204 37.4981C88.9204 39.1094 87.5704 40.3769 85.9101 40.3769H83.6044V34.6108ZM84.8314 35.8379V39.1499H85.9034C86.8844 39.1499 87.6867 38.4302 87.6867 37.4981C87.6867 36.566 86.8844 35.8379 85.9034 35.8379H84.8314Z" fill="white"/>
<path d="M91.6257 34.6108H92.9421L93.9651 38.479L95.086 34.6108H96.3619L97.3833 38.479L98.5042 34.6108H99.8037L98.1435 40.3769H96.7125L95.7147 36.9334L94.7253 40.3769H93.2943L91.6257 34.6108Z" fill="white"/>
<path d="M102.765 34.6108H103.992V40.3769H102.765V34.6108Z" fill="white"/>
<path d="M107.574 34.6108H109.88C111.54 34.6108 112.89 35.8868 112.89 37.4981C112.89 39.1094 111.54 40.3769 109.88 40.3769H107.574V34.6108ZM108.801 35.8379V39.1499H109.873C110.854 39.1499 111.656 38.4302 111.656 37.4981C111.656 36.566 110.854 35.8379 109.873 35.8379H108.801Z" fill="white"/>
<path d="M116.168 34.6108H120.094V35.8379H117.395V36.8188H119.971V38.0459H117.395V39.1499H120.217V40.3769H116.168V34.6108Z" fill="white"/>
<path d="M0.944824 34.6108H5.48216V35.8379H3.84386V40.3769H2.58312V35.8379H0.944824V34.6108Z" fill="white"/>
<path d="M10.5488 38.1674H9.98584V40.3754H8.7251V34.6094H11.3123C12.3202 34.6094 13.1444 35.4117 13.1444 36.3926C13.1444 37.1612 12.6405 37.8152 11.9343 38.0613L13.2287 40.3754H11.7843L10.5488 38.1674ZM9.98584 35.8381V36.9421H11.314C11.6326 36.9421 11.8854 36.7044 11.8854 36.3943C11.8854 36.0842 11.6326 35.8381 11.314 35.8381H9.98584Z" fill="white"/>
<path d="M16.6249 34.6108H17.8857V40.3769H16.6249V34.6108Z" fill="white"/>
<path d="M21.5651 34.6108H24.1524C25.1603 34.6108 25.9845 35.3794 25.9845 36.3115C25.9845 36.6638 25.8665 36.9823 25.6744 37.252C26.0098 37.5958 26.2373 38.0695 26.2373 38.6021C26.2373 39.583 25.4131 40.3769 24.4052 40.3769H21.5651V34.6108ZM22.8259 35.8379V36.7784H24.154C24.4726 36.7784 24.7254 36.5744 24.7254 36.3115C24.7254 36.0486 24.4726 35.8379 24.154 35.8379H22.8259ZM24.4052 38.0037H22.8259V39.1482H24.4052C24.7237 39.1482 24.9766 38.9105 24.9766 38.6004C24.9766 38.2903 24.7153 38.0037 24.4052 38.0037Z" fill="white"/>
<path d="M30.9432 34.6108H32.4129L34.4878 40.3769H33.1343L32.6978 39.1499H30.6482L30.2117 40.3769H28.8751L30.9415 34.6108H30.9432ZM31.0949 37.9228H32.2629L31.6831 36.2795L31.0949 37.9228Z" fill="white"/>
<path d="M37.5907 34.6108H38.8515V39.1499H41.373V40.3769H37.5924V34.6108H37.5907Z" fill="white"/>
<path d="M31.4371 23.2728H40.9533V28.9984H23.6231V23.2728L28.8347 17.6618L29.4431 16.9825L34.1406 11.7457C35.0592 10.699 35.1536 9.44503 35.162 9.17872C35.1637 9.14669 35.1637 9.12815 35.1637 9.12815C35.1637 9.09444 35.1637 9.05905 35.1637 9.02365C35.1637 7.46289 33.8996 6.19878 32.3388 6.19878C30.778 6.19878 29.5139 7.46289 29.5139 9.02365H23.9585C23.9602 4.32283 27.7711 0.510254 32.4736 0.510254C37.1761 0.510254 40.987 4.32283 40.987 9.02365C40.987 10.1765 40.7578 11.2755 40.3432 12.2783C40.3432 12.2783 40.3426 12.2795 40.3415 12.2817C39.8106 14.1391 38.7285 15.1487 38.7285 15.1487L34.2164 20.04L31.4371 23.2728Z" fill="white"/>
<path d="M8.75875 23.2728H18.275V28.9984H0.944824V23.2728L6.15635 17.6618L6.76481 16.9825L11.4623 11.7457C12.3809 10.699 12.4752 9.44503 12.4837 9.17872C12.4854 9.14669 12.4854 9.12815 12.4854 9.12815C12.4854 9.09444 12.4854 9.05905 12.4854 9.02365C12.4854 7.46289 11.2212 6.19878 9.66048 6.19878C8.09972 6.19878 6.83561 7.46289 6.83561 9.02365H1.28192C1.28192 4.32283 5.09281 0.510254 9.79532 0.510254C14.4978 0.510254 18.3087 4.32283 18.3087 9.02365C18.3087 10.1765 18.0795 11.2755 17.6649 12.2783C17.6649 12.2783 17.6643 12.2795 17.6632 12.2817C17.1323 14.1391 16.0502 15.1487 16.0502 15.1487L11.5381 20.04L8.75875 23.2728Z" fill="white"/>
</svg>
