<svg width="82" height="41" viewBox="0 0 82 41" fill="none" xmlns="http://www.w3.org/2000/svg">
<path d="M11.5106 0.523948C11.0982 0.592694 9.82636 0.867677 9.27639 1.00517C7.69523 1.40619 5.28913 2.87276 3.86838 4.2706C-1.18444 9.27758 -1.29901 17.4469 3.5934 22.557C4.81937 23.8173 5.60994 24.4131 7.25984 25.2724C10.1815 26.7963 14.0199 27.0713 17.2394 25.9828C21.1923 24.6423 24.3317 21.4685 25.5462 17.5844C25.9587 16.2553 25.9816 16.1407 26.1306 14.8002C26.3368 12.944 26.1077 11.1452 25.4317 9.16301C24.389 6.13819 21.9256 3.33107 19.0727 1.92178C16.9988 0.890593 15.727 0.569779 13.5157 0.512491C12.5991 0.489575 11.7054 0.501033 11.5106 0.523948Z" fill="white"/>
<path d="M58.6472 13.9063C58.6357 15.9573 58.6243 17.7103 58.6128 17.779C58.6013 17.8936 59.3346 17.9394 61.8668 17.9624C63.6656 17.9738 65.2009 17.9624 65.2811 17.928C65.3957 17.8936 65.327 17.6874 65.0405 17.1603C64.8228 16.7593 64.502 16.1979 64.3416 15.8885C64.1812 15.5906 63.9062 15.1094 63.7458 14.823C63.4594 14.3188 63.4365 14.1011 63.7 14.2615C63.7573 14.2959 63.9406 14.5824 64.101 14.8917C64.2614 15.2011 64.4447 15.4875 64.502 15.5219C64.6624 15.625 64.8916 15.3386 65.2468 14.6053C65.7738 13.5397 65.5561 12.245 64.7083 11.2826C63.8604 10.3201 63.6427 10.2514 60.9845 10.217L58.6586 10.1826L58.6472 13.9063Z" fill="white"/>
<path d="M72.4539 13.4826C71.9612 14.3534 71.4914 15.1669 71.4227 15.293C71.3539 15.419 71.1133 15.8315 70.8956 16.2096C68.5697 20.1854 66.9084 23.1071 66.9084 23.1873C66.9084 23.2216 69.853 23.256 73.4392 23.256C77.0255 23.256 79.9701 23.2102 79.9701 23.1529C79.9701 23.1071 79.5805 22.3623 79.0879 21.5259C78.1254 19.8302 77.0713 17.997 76.762 17.4699C76.6474 17.2751 76.3724 16.7939 76.1318 16.3814C75.8912 15.969 75.6162 15.4763 75.5016 15.293C75.387 15.0982 74.9173 14.2847 74.4475 13.4712C73.9892 12.6577 73.5538 11.9702 73.4851 11.9473C73.4278 11.9244 72.958 12.6233 72.4539 13.4826Z" fill="white"/>
<path d="M41.7245 23.2213L41.7588 32.0208H46.9148L52.0707 32.0093L52.9988 31.7114C54.706 31.1615 55.8174 30.4626 57.0204 29.1679C57.8912 28.2398 58.5786 27.0596 59.0255 25.7191C59.2546 25.0316 59.289 24.6879 59.289 23.2557C59.289 21.8235 59.2546 21.4798 59.0255 20.7923C58.0058 17.7331 56.1496 15.8312 53.1592 14.7656C52.4259 14.5021 52.2999 14.5021 47.0523 14.4562L41.7015 14.4219L41.7245 23.2213Z" fill="white"/>
<path d="M60.492 24.5161V29.7866H64.5365C66.7708 29.7866 68.6155 29.7637 68.6384 29.7408C68.6613 29.7179 68.6728 28.5263 68.6498 27.1055L68.6155 24.5161H65.7625V19.2456H60.492V24.5161Z" fill="white"/>
<path d="M25.5691 27.9764L25.6035 35.6874L33.0395 35.7218C38.6767 35.7447 40.5099 35.7103 40.6359 35.6072C40.7849 35.4926 40.7963 34.4385 40.7276 28.0222L40.6588 20.5633H33.2114V23.084C33.2114 25.0432 33.2458 25.6276 33.3603 25.7192C33.452 25.7765 34.0249 26.2463 34.655 26.7504C35.5946 27.5066 35.7435 27.6785 35.5258 27.7014C35.2508 27.7472 35.5487 27.9649 29.671 23.3704C27.494 21.6747 25.6837 20.2769 25.6264 20.2769C25.5806 20.2769 25.5577 23.7485 25.5691 27.9764Z" fill="white"/>
<path d="M69.8873 31.2761V38.0361H73.7944C78.0795 38.0361 78.3545 38.0018 79.6492 37.3258C82.0439 36.0654 82.7657 33.0062 81.0929 31.2417C80.7263 30.8636 80.669 30.7262 80.7606 30.5887C80.8294 30.497 81.0242 30.1304 81.1846 29.7866C81.4366 29.2481 81.471 29.0304 81.4366 28.2971C81.3564 26.6129 80.3023 25.3296 78.4576 24.688C78.0566 24.5505 77.2317 24.5161 73.9319 24.5161H69.8873V31.2761Z" fill="white"/>
<path d="M2.51642 27.4951C2.51642 27.5524 2.81432 28.1023 3.18096 28.721C3.97154 30.0501 4.91106 31.6427 6.52659 34.3697C7.17968 35.4696 8.00463 36.8674 8.35981 37.4632C8.715 38.059 9.25351 38.9756 9.56287 39.5027C9.86076 40.0297 10.1472 40.4766 10.1816 40.4995C10.2274 40.5224 10.9149 39.4339 11.7169 38.0819L13.1835 35.63L12.5533 34.5071C12.1981 33.8884 11.9117 33.3499 11.9117 33.3041C11.9117 33.2583 12.0033 33.2239 12.1179 33.2239C12.2554 33.2239 12.5304 33.5676 12.9543 34.278C15.9562 39.3194 16.6437 40.4422 16.7239 40.4422C16.7926 40.4422 18.1905 38.1621 19.0842 36.6039C19.3019 36.2258 20.6309 33.9801 21.9944 31.6771C22.7048 30.4741 23.461 29.2023 23.6672 28.8356C23.8735 28.4804 24.1255 28.068 24.2286 27.9305C24.6182 27.3576 25.1338 27.3805 13.4585 27.3805C6.50368 27.3805 2.51642 27.4263 2.51642 27.4951Z" fill="white"/>
</svg>
